<svg width="849" height="950" viewBox="0 0 849 950" fill="none" xmlns="http://www.w3.org/2000/svg">
<path d="M532.264 119.678C514.113 126.058 505.208 130.258 485.678 132.517C456.999 135.834 427.52 132.265 399.521 125.727C370.306 118.906 344.016 108.181 324.95 83.5826C314.271 69.8046 306.665 52.1677 315.188 35.2161C333.94 -2.08532 380.042 -6.91393 412.364 15.4399C425.024 24.1957 432.539 42.4167 429.97 57.7575C424.81 88.561 405.473 111.39 385.682 133.628C361.005 161.357 331.389 183.865 300.757 203.968C261.472 229.748 217.313 244.971 175.264 265" stroke="white" stroke-width="3" stroke-linecap="round" stroke-dasharray="5 10"/>
<path d="M636.396 737.132C678.352 695.176 706.924 641.721 718.5 583.527C730.075 525.333 724.134 465.013 701.428 410.195C678.722 355.377 640.27 308.523 590.935 275.559C541.6 242.595 483.599 225 424.264 225C364.93 225 306.928 242.595 257.593 275.559C208.258 308.523 169.807 355.377 147.1 410.195C124.394 465.013 118.453 525.333 130.029 583.527C141.604 641.721 170.176 695.176 212.132 737.132L424.264 737.132L636.396 737.132Z" fill="#3C5186"/>
<rect x="274.264" y="288" width="300" height="450" fill="#9863AB"/>
<path d="M384.264 667C384.264 653.193 395.457 642 409.264 642H439.264C453.071 642 464.264 653.193 464.264 667V738H424.264H384.264V667Z" fill="#984EB3"/>
<path d="M464.264 738V667C464.264 653.193 453.071 642 439.264 642H409.264C395.457 642 384.264 653.193 384.264 667V738" stroke="black" stroke-width="4"/>
<path d="M249.264 263H599.264L594.264 288H254.264L249.264 263Z" fill="#984EB3"/>
<path d="M261.264 305H586.264L581.621 325H265.907L261.264 305Z" fill="#8846A0"/>
<rect x="284.264" y="168" width="280" height="90" rx="25" fill="#984EB3"/>
<path d="M301.207 248C300.951 248 300.823 247.84 300.823 247.52L300.919 181.568C300.919 181.312 301.079 181.184 301.399 181.184H312.055C312.375 181.184 312.535 181.312 312.535 181.568L312.439 207.68H326.839V181.568C326.839 181.312 326.967 181.184 327.223 181.184H337.879C338.199 181.184 338.359 181.312 338.359 181.568L338.551 247.52C338.551 247.84 338.391 248 338.071 248H327.319C326.999 248 326.839 247.84 326.839 247.52V219.296H312.439V247.52C312.439 247.84 312.311 248 312.055 248H301.207Z" fill="white"/>
<path d="M517.91 248C517.654 248 517.526 247.84 517.526 247.52L517.622 181.664C517.622 181.344 517.782 181.184 518.102 181.184H528.758C529.078 181.184 529.238 181.344 529.238 181.664L529.142 236.192H548.918C549.238 236.192 549.398 236.352 549.398 236.672V247.52C549.398 247.84 549.238 248 548.918 248H517.91Z" fill="white"/>
<path d="M465.832 248C465.576 248 465.448 247.84 465.448 247.52L465.544 181.568C465.544 181.312 465.672 181.184 465.928 181.184H496.744C497 181.184 497.128 181.344 497.128 181.664V192.416C497.128 192.672 497 192.8 496.744 192.8H477.064V207.776H496.744C497 207.776 497.128 207.904 497.128 208.16L497.224 219.008C497.224 219.264 497.096 219.392 496.84 219.392H477.064V236.192H496.84C497.096 236.192 497.224 236.352 497.224 236.672V247.616C497.224 247.872 497.096 248 496.84 248H465.832Z" fill="white"/>
<path d="M425.485 248C425.229 248 425.101 247.84 425.101 247.52V192.8H412.621C412.301 192.8 412.141 192.64 412.141 192.32L412.237 181.568C412.237 181.312 412.365 181.184 412.621 181.184H449.101C449.421 181.184 449.581 181.312 449.581 181.568V192.32C449.581 192.64 449.453 192.8 449.197 192.8H436.621L436.717 247.52C436.717 247.84 436.589 248 436.333 248H425.485Z" fill="white"/>
<path d="M377.927 248.96C374.471 248.96 371.303 248.096 368.423 246.368C365.607 244.576 363.335 242.24 361.607 239.36C359.879 236.416 359.015 233.184 359.015 229.664L359.111 199.232C359.111 195.712 359.943 192.512 361.607 189.632C363.335 186.752 365.639 184.448 368.519 182.72C371.399 180.992 374.535 180.128 377.927 180.128C381.383 180.128 384.519 180.992 387.335 182.72C390.151 184.448 392.391 186.752 394.055 189.632C395.783 192.512 396.647 195.712 396.647 199.232L396.743 229.664C396.743 233.184 395.879 236.416 394.151 239.36C392.487 242.24 390.215 244.576 387.335 246.368C384.519 248.096 381.383 248.96 377.927 248.96ZM377.927 237.344C379.847 237.344 381.511 236.576 382.919 235.04C384.391 233.44 385.127 231.648 385.127 229.664L385.031 199.232C385.031 197.12 384.359 195.328 383.015 193.856C381.671 192.384 379.975 191.648 377.927 191.648C375.943 191.648 374.247 192.384 372.839 193.856C371.431 195.264 370.727 197.056 370.727 199.232V229.664C370.727 231.776 371.431 233.6 372.839 235.136C374.247 236.608 375.943 237.344 377.927 237.344Z" fill="white"/>
<rect x="303.764" y="345.5" width="63" height="72.2308" fill="#C6B4CE" stroke="white" stroke-width="3"/>
<rect x="481.764" y="345.5" width="63" height="72.2308" fill="#C6B4CE" stroke="white" stroke-width="3"/>
<rect x="392.764" y="345.5" width="63" height="72.2308" fill="#C6B4CE" stroke="white" stroke-width="3"/>
<rect x="303.764" y="535.5" width="63" height="72.2308" fill="#C6B4CE" stroke="white" stroke-width="3"/>
<rect x="481.764" y="535.5" width="63" height="72.2308" fill="#C6B4CE" stroke="white" stroke-width="3"/>
<rect x="392.764" y="535.5" width="63" height="72.2308" fill="#C6B4CE" stroke="white" stroke-width="3"/>
<rect x="303.764" y="440.5" width="63" height="72.2308" fill="#C6B4CE" stroke="white" stroke-width="3"/>
<rect x="481.764" y="440.5" width="63" height="72.2308" fill="#C6B4CE" stroke="white" stroke-width="3"/>
<rect x="392.764" y="440.5" width="63" height="72.2308" fill="#C6B4CE" stroke="white" stroke-width="3"/>
<path d="M293.264 609H377.295L371.363 619H299.196L293.264 609Z" fill="white"/>
<path d="M471.264 416H555.295L549.363 426H477.196L471.264 416Z" fill="white"/>
<path d="M293.264 416H377.295L371.363 426H299.196L293.264 416Z" fill="white"/>
<path d="M382.264 416H466.295L460.363 426H388.196L382.264 416Z" fill="white"/>
<path d="M382.264 511H466.295L460.363 521H388.196L382.264 511Z" fill="white"/>
<path d="M471.264 511H555.295L549.363 521H477.196L471.264 511Z" fill="white"/>
<path d="M293.264 511H377.295L371.363 521H299.196L293.264 511Z" fill="white"/>
<path d="M382.264 609H466.295L460.363 619H388.196L382.264 609Z" fill="white"/>
<path d="M471.264 609H555.295L549.363 619H477.196L471.264 609Z" fill="white"/>
<line x1="424.139" y1="738.002" x2="424.607" y2="641.999" stroke="black" stroke-width="0.25"/>
<path d="M578.264 718C578.264 706.954 587.218 698 598.264 698H633.264C644.31 698 653.264 706.954 653.264 718V738H578.264V718Z" fill="#84AA72"/>
<path d="M194.264 718C194.264 706.954 203.218 698 214.264 698H249.264C260.31 698 269.264 706.954 269.264 718V738H194.264V718Z" fill="#84AA72"/>
<path d="M172.728 676C118.913 676 122.307 567.04 122.307 567.04C122.307 567.04 141.699 449 172.728 449C203.756 449 218.301 544.34 222.179 567.04C222.179 567.04 226.543 676 172.728 676Z" fill="#6C8A5D"/>
<path d="M99.1119 614.265C58.7507 614.265 61.2961 553.178 61.2961 553.178C61.2961 553.178 75.8406 487 99.1119 487C122.383 487 133.292 540.451 136.2 553.178C136.2 553.178 139.473 614.265 99.1119 614.265Z" fill="#84AA72"/>
<line x1="172.764" y1="738.165" x2="172.764" y2="544" stroke="#845326" stroke-width="5"/>
<path d="M172.264 638C129.264 638 98.2641 595 98.2642 548.5" stroke="#845326" stroke-width="5"/>
<path d="M194.071 563.728L172.071 586.728" stroke="#845326" stroke-width="5"/>
<line x1="173.459" y1="619.727" x2="151.458" y2="596.728" stroke="#845326" stroke-width="5"/>
<line x1="105.142" y1="584.982" x2="83.4359" y2="561.705" stroke="#845326" stroke-width="5"/>
<path d="M538.599 100.497C538.599 100.497 511.107 80.544 519.513 77.4843L532.123 72.8948L568.022 89.788L538.599 100.497Z" fill="#9863AB"/>
<path d="M529.142 103.939C529.142 103.939 605.445 76.167 631.151 66.8107C656.857 57.4544 685.376 67.8231 668.667 73.9047C651.958 79.9863 549.471 117.289 549.471 117.289L529.142 103.939Z" fill="#9863AB"/>
<path d="M523.684 839.259L517.795 839.258L514.994 816.547L523.685 816.547L523.684 839.259Z" fill="#FFB6B6"/>
<path d="M525.185 844.966L506.199 844.966V844.726C506.199 842.766 506.978 840.886 508.364 839.5C509.749 838.114 511.629 837.336 513.589 837.336H513.589L517.057 834.705L523.528 837.336L525.185 837.336L525.185 844.966Z" fill="#2F2E41"/>
<path d="M618.801 817.781L614.786 822.089L596.261 808.653L602.187 802.296L618.801 817.781Z" fill="#FFB6B6"/>
<path d="M624 820.574L611.055 834.463L610.879 834.299C609.445 832.963 608.601 831.112 608.532 829.153C608.463 827.194 609.175 825.289 610.512 823.855L610.512 823.854L610.952 819.524L617.288 816.584L618.418 815.372L624 820.574Z" fill="#2F2E41"/>
<path d="M610.088 805.017L603.865 818.034L565.647 792.73L560.087 785.154L541.857 760.316L534.446 772.074L529.29 784.366C527.61 785.462 526.194 786.918 525.144 788.628C524.095 790.338 523.438 792.26 523.222 794.254L522.986 796.43L526.244 825.721L513.86 829.524L506.748 790.176L509.073 781.649L511.467 769.681L523.518 731.86H555.769L574.266 771.233L575.618 779.255L580.863 785.275L610.088 805.017Z" fill="#2F2E41"/>
<path d="M543.066 669.981L548.495 674.115L555.042 676.127C555.042 676.127 557.749 714.201 560.188 716.64C562.626 719.079 560.427 719.144 560.917 722.312C561.407 725.481 562.598 731.975 562.598 731.975C546.135 740.69 531.943 740.923 520.543 730.726C520.397 730.095 520.471 729.434 520.753 728.851C521.035 728.268 521.507 727.799 522.092 727.521C524.214 726.395 520.136 721.141 521.87 720.262C523.604 719.383 521.165 711.762 521.165 711.762L522.765 695.86L521.501 693.318L524.586 677.764L529.938 675.81L532.076 670.658L543.066 669.981Z" fill="#3F3D56"/>
<path d="M546.467 737.651C546.442 736.963 546.569 736.279 546.838 735.646C547.107 735.012 547.511 734.446 548.023 733.986C548.534 733.525 549.14 733.183 549.799 732.983C550.457 732.782 551.151 732.728 551.832 732.825L559.483 717.954L563.746 725.527L555.827 738.488C555.588 739.622 554.942 740.629 554.011 741.318C553.08 742.007 551.928 742.33 550.775 742.227C549.621 742.124 548.545 741.601 547.751 740.758C546.957 739.914 546.5 738.809 546.467 737.651H546.467Z" fill="#FFB6B6"/>
<path d="M559.352 734.013L575.762 708.579L575.708 708.462C575.646 708.327 571.93 700.302 568.329 692.95C567.775 691.818 567.223 690.702 566.688 689.633C566.457 689.172 566.229 688.72 566.005 688.278C564.493 685.297 563.171 682.833 562.383 681.662C560.638 679.015 558.041 677.045 555.022 676.078L554.946 676.059L554.873 676.089C553.397 676.712 552.176 677.82 551.414 679.229C550.651 680.639 550.392 682.266 550.678 683.843C552.102 691.449 555.273 698.621 559.943 704.791L562.604 708.297L553.358 728.398L559.352 734.013Z" fill="#3F3D56"/>
<path d="M502.92 636.519C503.372 637.037 503.705 637.649 503.895 638.31C504.085 638.972 504.127 639.666 504.02 640.346C503.912 641.026 503.657 641.673 503.272 642.243C502.887 642.814 502.381 643.292 501.791 643.646L505.212 660.017L497.131 656.818L495.122 641.762C494.593 640.731 494.461 639.543 494.75 638.421C495.04 637.299 495.731 636.323 496.692 635.676C497.653 635.03 498.818 634.759 499.966 634.914C501.114 635.069 502.165 635.64 502.92 636.519H502.92Z" fill="#FFB6B6"/>
<path d="M495.201 647.458L498.469 677.551L498.585 677.608C498.68 677.654 502.82 679.685 507.902 682.103C508.759 682.511 508.636 684.278 509.532 684.701C510.149 684.992 511.779 683.936 512.403 684.228C517.957 686.825 523.574 689.351 525.812 690.035C528.834 690.993 532.093 690.888 535.047 689.738L535.118 689.705L535.155 689.636C535.91 688.222 536.16 686.594 535.865 685.018C535.57 683.443 534.747 682.015 533.531 680.971C527.636 675.958 520.656 672.385 513.143 670.532L508.868 669.483L503.393 648.047L495.201 647.458Z" fill="#3F3D56"/>
<path d="M537.277 668.276C543.208 668.276 548.016 663.468 548.016 657.537C548.016 651.607 543.208 646.799 537.277 646.799C531.346 646.799 526.539 651.607 526.539 657.537C526.539 663.468 531.346 668.276 537.277 668.276Z" fill="#FFB6B6"/>
<path d="M526.615 650.342C527.499 647.772 531.895 645.99 539.022 645.742C546.149 645.495 547.956 653.894 547.956 653.894C552.714 657.753 542.876 668.086 542.4 667.714L542.614 665.772C542.968 662.557 544.474 660.048 542.559 656.697L540.72 656.718C538.345 657.174 535.97 657.631 533.596 658.088L536.407 655.612L536.328 655.49C535.132 656.112 533.83 656.508 532.49 656.655C530.979 656.744 529.327 656.142 528.603 654.813C528.41 654.447 528.291 654.047 528.256 653.635C526.218 654.449 525.286 656.961 525.286 656.961C525.286 656.961 525.732 652.911 526.615 650.342Z" fill="#2F2E41"/>
<path d="M317.266 650.986C317.12 650.801 316.963 650.625 316.796 650.46C316.837 650.404 316.878 650.342 316.919 650.286L317.266 650.986Z" fill="#2F2E41"/>
<path d="M319.354 694.176C317.598 697.296 314.09 699.037 310.612 699.89C306.706 700.913 302.593 700.834 298.729 699.66C298.239 699.502 297.749 699.318 297.274 699.114C297.502 698.508 297.683 697.885 297.815 697.25C297.993 696.392 298.082 695.517 298.081 694.641C297.694 695.396 297.193 696.087 296.595 696.689C296.134 697.173 295.61 697.594 295.037 697.94C293.262 696.862 291.724 695.434 290.518 693.742C290.595 693.553 290.671 693.364 290.743 693.175C291.114 692.188 291.407 691.174 291.621 690.142C291.911 688.746 292.057 687.324 292.055 685.899C291.426 687.127 290.609 688.25 289.635 689.228C289.343 689.54 289.032 689.835 288.706 690.111C288.199 688.574 288.004 686.951 288.13 685.337C288.256 683.723 288.702 682.151 289.441 680.71C291.463 676.972 295.385 674.751 298.878 672.336C302.375 669.92 305.873 666.652 306.17 662.409C306.369 659.544 305.041 656.674 305.572 653.856C305.795 652.667 306.341 651.562 307.149 650.662C307.956 649.762 308.996 649.101 310.153 648.751C311.311 648.4 312.542 648.374 313.714 648.676C314.885 648.977 315.951 649.594 316.796 650.46C314.815 653.268 312.844 656.174 312.042 659.514C311.225 662.914 311.894 666.903 314.575 669.154C315.494 669.931 316.622 670.482 317.332 671.452C318.277 672.739 318.282 674.455 318.435 676.038C318.742 679.117 319.748 682.079 320.289 685.127C320.835 688.171 320.866 691.475 319.354 694.176Z" fill="#2F2E41"/>
<path d="M283.345 820.808L288.005 824.409L304.112 808.147L297.234 802.832L283.345 820.808Z" fill="#A0616A"/>
<path d="M283.543 817.29L291.25 822.543L288.811 825.699L292.077 835.948C292.239 836.455 292.234 836.999 292.064 837.503C291.894 838.006 291.567 838.442 291.132 838.746C290.697 839.051 290.176 839.209 289.645 839.196C289.113 839.184 288.6 839.002 288.18 838.677L279.409 831.9L280.31 827.609L277.307 830.275L274 827.72L283.543 817.29Z" fill="#2F2E41"/>
<path d="M306.989 660.058C306.989 661.879 307.435 663.672 308.289 665.28C309.143 666.888 310.379 668.262 311.888 669.281C313.397 670.3 315.133 670.933 316.944 671.125C318.755 671.316 320.585 671.06 322.274 670.379C323.963 669.698 325.458 668.613 326.63 667.219C327.801 665.825 328.613 664.165 328.993 662.384C329.373 660.603 329.31 658.756 328.809 657.005C328.309 655.255 327.386 653.653 326.123 652.342L326.069 652.289C325.98 652.195 325.891 652.102 325.798 652.013C325.797 652.013 325.797 652.013 325.796 652.013C325.796 652.012 325.795 652.012 325.795 652.012C325.794 652.011 325.794 652.011 325.794 652.01C325.794 652.01 325.794 652.009 325.794 652.009C325.678 651.902 325.562 651.795 325.442 651.693C323.484 649.975 320.732 648.111 317.925 648.111C311.78 648.111 306.989 653.913 306.989 660.058Z" fill="#2F2E41"/>
<path d="M370.395 654.345C370.449 654.939 370.371 655.536 370.168 656.097C369.966 656.657 369.642 657.166 369.222 657.587C368.801 658.009 368.293 658.333 367.733 658.538C367.174 658.742 366.576 658.821 365.983 658.769L338.436 683.64L333.696 676.154L362.264 654.06C362.417 653.069 362.928 652.168 363.701 651.529C364.474 650.889 365.454 650.556 366.456 650.591C367.459 650.626 368.413 651.028 369.139 651.72C369.865 652.412 370.312 653.346 370.395 654.345V654.345Z" fill="#A0616A"/>
<path d="M326.664 691.148C326.664 691.148 327.689 693.041 331.19 690.118C333.992 687.778 347.42 677.619 350.313 673.456C350.974 673.718 351.703 673.752 352.385 673.554C353.067 673.356 353.664 672.936 354.082 672.362L346.156 665.42C343.784 665.693 343.835 667.286 344.082 668.191L338.103 670.899L322.664 680.766L325.898 689.792L326.664 691.148Z" fill="#6C63FF"/>
<path d="M311.707 708.588L311.129 711.337L310.639 721.479L332.223 722.665L331.552 707.067L329.46 703.629L311.707 708.588Z" fill="#A0616A"/>
<path d="M320.854 671.96C326.006 671.96 330.182 667.784 330.182 662.632C330.182 657.48 326.006 653.304 320.854 653.304C315.702 653.304 311.526 657.48 311.526 662.632C311.526 667.784 315.702 671.96 320.854 671.96Z" fill="#A0616A"/>
<path d="M304.293 697.038L304.236 689.284C304.235 686.494 305.179 683.786 306.914 681.602C308.65 679.417 311.074 677.886 313.792 677.256L313.828 677.248L315.672 674.763L323.166 675.512L324.54 678.32L329.97 681.553L332.061 688.274C332.967 688.878 333.74 689.663 334.331 690.578C334.922 691.494 335.318 692.522 335.495 693.597C336.205 698.131 333.03 702.667 332.653 703.188L331.68 708.667L310.514 712.402L310.343 712.423L304.293 697.038Z" fill="#6C63FF"/>
<path d="M332.269 660.969C331.181 661.658 330.052 662.28 328.888 662.833C327.707 663.4 326.472 663.847 325.201 664.166C324.838 663.368 324.393 662.61 323.874 661.903C324.007 662.74 324.011 663.593 323.884 664.431C321.778 664.771 319.62 664.594 317.598 663.915L315.841 660.969L315.708 664.257C314.253 664.523 312.803 664.773 311.348 665.034C311.261 665.044 311.174 665.064 311.092 665.08C310.188 661.005 311.47 656.516 314.32 653.799C315.734 652.465 317.499 651.559 319.408 651.189C321.318 650.818 323.293 650.997 325.104 651.706C325.334 651.798 325.569 651.9 325.794 652.007C325.794 652.008 325.794 652.008 325.794 652.009C325.794 652.01 325.795 652.01 325.795 652.011C325.796 652.011 325.796 652.012 325.797 652.012C325.797 652.012 325.798 652.012 325.799 652.012C325.932 652.079 326.044 652.237 326.192 652.222C332.565 651.512 332.769 656.455 332.269 660.969Z" fill="#2F2E41"/>
<path d="M316.75 808.78L321.418 812.371L337.493 796.076L330.603 790.776L316.75 808.78Z" fill="#A0616A"/>
<path d="M317.365 805.587L325.083 810.824L322.65 813.985L325.937 824.228C326.099 824.734 326.096 825.279 325.927 825.782C325.758 826.286 325.432 826.722 324.998 827.028C324.563 827.334 324.042 827.492 323.511 827.481C322.98 827.469 322.466 827.288 322.045 826.964L313.261 820.205L314.153 815.913L311.155 818.585L307.843 816.036L317.365 805.587Z" fill="#2F2E41"/>
<path d="M301.604 788.893L301.604 788.832L303.816 785.019L301.557 780.057L301.489 767.308L301.855 765.394C302.348 762.82 302.204 760.164 301.438 757.658L301.397 749.897C301.317 747.953 304.329 746.244 303.627 744.623C296.988 729.303 310.405 717.617 310.496 717.523L310.77 717.238L312.258 718.365L313.674 718.367L332.781 721.848L332.919 722.105C333.671 723.515 335.121 728.374 335.207 730.573C336.16 731.675 347.007 744.227 347.971 745.099C354.487 750.995 358.218 760.754 359.862 766.046C360.27 767.354 360.352 768.742 360.102 770.089C359.851 771.436 359.274 772.701 358.423 773.774L333.755 800.794L327.116 794.666L340.464 770.343L339.501 767.876C337.774 767.557 336.211 766.649 335.079 765.307L332.376 762.098C331.628 761.213 331.153 760.129 331.007 758.978L329.368 758.781L323.497 752.617L319.424 789.505L318.316 792.419L299.031 815.092L290.86 809.985L301.604 788.893Z" fill="#2F2E41"/>
<path d="M298.659 630.498C298.288 630.965 298.024 631.507 297.886 632.086C297.748 632.665 297.738 633.268 297.858 633.852C297.978 634.435 298.224 634.985 298.579 635.463C298.935 635.942 299.39 636.336 299.915 636.619L293.782 654.774L298.79 674.013L306.864 670.363L301.882 655.851L305.609 634.728C306.026 633.816 306.094 632.782 305.8 631.823C305.505 630.865 304.87 630.047 304.013 629.526C303.156 629.004 302.138 628.815 301.151 628.995C300.164 629.174 299.277 629.709 298.659 630.498V630.498Z" fill="#A0616A"/>
<path d="M306.05 689.866C306.05 689.866 304.153 690.884 302.834 686.518C301.778 683.023 294.592 664.046 294.463 658.978C293.767 658.834 293.139 658.462 292.678 657.922C292.217 657.381 291.949 656.702 291.916 655.993L302.352 654.548C304.184 656.08 303.266 657.383 302.562 658.003L306.117 664.024L313.547 680.279L307.434 689.154L306.05 689.866Z" fill="#6C63FF"/>
<path d="M311.345 665.033C312.417 661.801 314.339 658.916 316.909 656.683C319.48 654.449 322.604 652.948 325.954 652.338C325.967 652.333 326.012 652.316 326.069 652.289C326.105 652.267 326.15 652.244 326.194 652.222C326.061 652.147 325.932 652.08 325.798 652.013C325.797 652.013 325.797 652.013 325.796 652.013C325.796 652.012 325.795 652.012 325.795 652.012C325.794 652.011 325.794 652.011 325.794 652.01C325.794 652.01 325.794 652.009 325.794 652.009C325.678 651.902 325.562 651.795 325.442 651.693L325.104 651.706C325.104 651.706 313.219 649.824 311.345 665.033Z" fill="#FD6584"/>
</svg>
