<svg xmlns="http://www.w3.org/2000/svg" version="1.1" xmlns:xlink="http://www.w3.org/1999/xlink" xmlns:svgjs="http://svgjs.com/svgjs" width="1440" height="560" preserveAspectRatio="none" viewBox="0 0 1440 560"><g mask="url(&quot;#SvgjsMask2128&quot;)" fill="none"><rect width="1440" height="560" x="0" y="0" fill="url(#SvgjsLinearGradient2129)"></rect><path d="M1440 0L972.5 0L1440 186.01z" fill="rgba(255, 255, 255, .1)"></path><path d="M972.5 0L1440 186.01L1440 192.60999999999999L638 0z" fill="rgba(255, 255, 255, .075)"></path><path d="M638 0L1440 192.60999999999999L1440 322.7L412.23 0z" fill="rgba(255, 255, 255, .05)"></path><path d="M412.23 0L1440 322.7L1440 375.33L252.02 0z" fill="rgba(255, 255, 255, .025)"></path><path d="M0 560L526.02 560L0 490.82z" fill="rgba(0, 0, 0, .1)"></path><path d="M0 490.82L526.02 560L728.11 560L0 386.14z" fill="rgba(0, 0, 0, .075)"></path><path d="M0 386.14L728.11 560L778.26 560L0 269.81z" fill="rgba(0, 0, 0, .05)"></path><path d="M0 269.81L778.26 560L784.52 560L0 197.92000000000002z" fill="rgba(0, 0, 0, .025)"></path></g><defs><mask id="SvgjsMask2128"><rect width="1440" height="560" fill="#ffffff"></rect></mask><linearGradient x1="15.28%" y1="139.29%" x2="84.72%" y2="-39.29%" gradientUnits="userSpaceOnUse" id="SvgjsLinearGradient2129"><stop stop-color="rgba(72, 70, 125, 1)" offset="0"></stop><stop stop-color="rgba(140, 88, 159, 1)" offset="1"></stop></linearGradient></defs></svg>